<svg width="240" height="168" viewBox="0 0 240 168" fill="none" xmlns="http://www.w3.org/2000/svg">
<g opacity="0.4">
<circle cx="2.09302" cy="165.349" r="2.09302" transform="rotate(-90 2.09302 165.349)" fill="white"/>
<circle cx="20.2325" cy="165.349" r="2.09302" transform="rotate(-90 20.2325 165.349)" fill="white"/>
<circle cx="38.3721" cy="165.349" r="2.09302" transform="rotate(-90 38.3721 165.349)" fill="white"/>
<circle cx="56.5116" cy="165.349" r="2.09302" transform="rotate(-90 56.5116 165.349)" fill="white"/>
<circle cx="74.6511" cy="165.349" r="2.09302" transform="rotate(-90 74.6511 165.349)" fill="white"/>
<circle cx="92.7907" cy="165.349" r="2.09302" transform="rotate(-90 92.7907 165.349)" fill="white"/>
<circle cx="110.93" cy="165.349" r="2.09302" transform="rotate(-90 110.93 165.349)" fill="white"/>
<circle cx="129.07" cy="165.349" r="2.09302" transform="rotate(-90 129.07 165.349)" fill="white"/>
<circle cx="147.209" cy="165.349" r="2.09302" transform="rotate(-90 147.209 165.349)" fill="white"/>
<circle cx="165.349" cy="165.349" r="2.09302" transform="rotate(-90 165.349 165.349)" fill="white"/>
<circle cx="183.488" cy="165.349" r="2.09302" transform="rotate(-90 183.488 165.349)" fill="white"/>
<circle cx="201.628" cy="165.349" r="2.09302" transform="rotate(-90 201.628 165.349)" fill="white"/>
<circle cx="219.767" cy="165.349" r="2.09302" transform="rotate(-90 219.767 165.349)" fill="white"/>
<circle cx="237.907" cy="165.349" r="2.09302" transform="rotate(-90 237.907 165.349)" fill="white"/>
<circle cx="2.09302" cy="147.209" r="2.09302" transform="rotate(-90 2.09302 147.209)" fill="white"/>
<circle cx="20.2325" cy="147.209" r="2.09302" transform="rotate(-90 20.2325 147.209)" fill="white"/>
<circle cx="38.3721" cy="147.209" r="2.09302" transform="rotate(-90 38.3721 147.209)" fill="white"/>
<circle cx="56.5116" cy="147.209" r="2.09302" transform="rotate(-90 56.5116 147.209)" fill="white"/>
<circle cx="74.6511" cy="147.209" r="2.09302" transform="rotate(-90 74.6511 147.209)" fill="white"/>
<circle cx="92.7907" cy="147.209" r="2.09302" transform="rotate(-90 92.7907 147.209)" fill="white"/>
<circle cx="110.93" cy="147.209" r="2.09302" transform="rotate(-90 110.93 147.209)" fill="white"/>
<circle cx="129.07" cy="147.209" r="2.09302" transform="rotate(-90 129.07 147.209)" fill="white"/>
<circle cx="147.209" cy="147.209" r="2.09302" transform="rotate(-90 147.209 147.209)" fill="white"/>
<circle cx="165.349" cy="147.209" r="2.09302" transform="rotate(-90 165.349 147.209)" fill="white"/>
<circle cx="183.488" cy="147.209" r="2.09302" transform="rotate(-90 183.488 147.209)" fill="white"/>
<circle cx="201.628" cy="147.209" r="2.09302" transform="rotate(-90 201.628 147.209)" fill="white"/>
<circle cx="219.767" cy="147.209" r="2.09302" transform="rotate(-90 219.767 147.209)" fill="white"/>
<circle cx="237.907" cy="147.209" r="2.09302" transform="rotate(-90 237.907 147.209)" fill="white"/>
<circle cx="2.09302" cy="129.07" r="2.09302" transform="rotate(-90 2.09302 129.07)" fill="white"/>
<circle cx="20.2325" cy="129.07" r="2.09302" transform="rotate(-90 20.2325 129.07)" fill="white"/>
<circle cx="38.3721" cy="129.07" r="2.09302" transform="rotate(-90 38.3721 129.07)" fill="white"/>
<circle cx="56.5116" cy="129.07" r="2.09302" transform="rotate(-90 56.5116 129.07)" fill="white"/>
<circle cx="74.6511" cy="129.07" r="2.09302" transform="rotate(-90 74.6511 129.07)" fill="white"/>
<circle cx="92.7907" cy="129.07" r="2.09302" transform="rotate(-90 92.7907 129.07)" fill="white"/>
<circle cx="110.93" cy="129.07" r="2.09302" transform="rotate(-90 110.93 129.07)" fill="white"/>
<circle cx="129.07" cy="129.07" r="2.09302" transform="rotate(-90 129.07 129.07)" fill="white"/>
<circle cx="147.209" cy="129.07" r="2.09302" transform="rotate(-90 147.209 129.07)" fill="white"/>
<circle cx="165.349" cy="129.07" r="2.09302" transform="rotate(-90 165.349 129.07)" fill="white"/>
<circle cx="183.488" cy="129.07" r="2.09302" transform="rotate(-90 183.488 129.07)" fill="white"/>
<circle cx="201.628" cy="129.07" r="2.09302" transform="rotate(-90 201.628 129.07)" fill="white"/>
<circle cx="219.767" cy="129.07" r="2.09302" transform="rotate(-90 219.767 129.07)" fill="white"/>
<circle cx="237.907" cy="129.07" r="2.09302" transform="rotate(-90 237.907 129.07)" fill="white"/>
<circle cx="2.09302" cy="110.93" r="2.09302" transform="rotate(-90 2.09302 110.93)" fill="white"/>
<circle cx="20.2325" cy="110.93" r="2.09302" transform="rotate(-90 20.2325 110.93)" fill="white"/>
<circle cx="38.3721" cy="110.93" r="2.09302" transform="rotate(-90 38.3721 110.93)" fill="white"/>
<circle cx="56.5116" cy="110.93" r="2.09302" transform="rotate(-90 56.5116 110.93)" fill="white"/>
<circle cx="74.6511" cy="110.93" r="2.09302" transform="rotate(-90 74.6511 110.93)" fill="white"/>
<circle cx="92.7907" cy="110.93" r="2.09302" transform="rotate(-90 92.7907 110.93)" fill="white"/>
<circle cx="110.93" cy="110.93" r="2.09302" transform="rotate(-90 110.93 110.93)" fill="white"/>
<circle cx="129.07" cy="110.93" r="2.09302" transform="rotate(-90 129.07 110.93)" fill="white"/>
<circle cx="147.209" cy="110.93" r="2.09302" transform="rotate(-90 147.209 110.93)" fill="white"/>
<circle cx="165.349" cy="110.93" r="2.09302" transform="rotate(-90 165.349 110.93)" fill="white"/>
<circle cx="183.488" cy="110.93" r="2.09302" transform="rotate(-90 183.488 110.93)" fill="white"/>
<circle cx="201.628" cy="110.93" r="2.09302" transform="rotate(-90 201.628 110.93)" fill="white"/>
<circle cx="219.767" cy="110.93" r="2.09302" transform="rotate(-90 219.767 110.93)" fill="white"/>
<circle cx="237.907" cy="110.93" r="2.09302" transform="rotate(-90 237.907 110.93)" fill="white"/>
<circle cx="2.09302" cy="92.7908" r="2.09302" transform="rotate(-90 2.09302 92.7908)" fill="white"/>
<circle cx="20.2325" cy="92.7908" r="2.09302" transform="rotate(-90 20.2325 92.7908)" fill="white"/>
<circle cx="38.3721" cy="92.7908" r="2.09302" transform="rotate(-90 38.3721 92.7908)" fill="white"/>
<circle cx="56.5116" cy="92.7908" r="2.09302" transform="rotate(-90 56.5116 92.7908)" fill="white"/>
<circle cx="74.6511" cy="92.7908" r="2.09302" transform="rotate(-90 74.6511 92.7908)" fill="white"/>
<circle cx="92.7907" cy="92.7908" r="2.09302" transform="rotate(-90 92.7907 92.7908)" fill="white"/>
<circle cx="110.93" cy="92.7908" r="2.09302" transform="rotate(-90 110.93 92.7908)" fill="white"/>
<circle cx="129.07" cy="92.7908" r="2.09302" transform="rotate(-90 129.07 92.7908)" fill="white"/>
<circle cx="147.209" cy="92.7908" r="2.09302" transform="rotate(-90 147.209 92.7908)" fill="white"/>
<circle cx="165.349" cy="92.7908" r="2.09302" transform="rotate(-90 165.349 92.7908)" fill="white"/>
<circle cx="183.488" cy="92.7908" r="2.09302" transform="rotate(-90 183.488 92.7908)" fill="white"/>
<circle cx="201.628" cy="92.7908" r="2.09302" transform="rotate(-90 201.628 92.7908)" fill="white"/>
<circle cx="219.767" cy="92.7908" r="2.09302" transform="rotate(-90 219.767 92.7908)" fill="white"/>
<circle cx="237.907" cy="92.7908" r="2.09302" transform="rotate(-90 237.907 92.7908)" fill="white"/>
<circle cx="2.09302" cy="74.6511" r="2.09302" transform="rotate(-90 2.09302 74.6511)" fill="white"/>
<circle cx="20.2325" cy="74.6511" r="2.09302" transform="rotate(-90 20.2325 74.6511)" fill="white"/>
<circle cx="38.3721" cy="74.6511" r="2.09302" transform="rotate(-90 38.3721 74.6511)" fill="white"/>
<circle cx="56.5116" cy="74.6511" r="2.09302" transform="rotate(-90 56.5116 74.6511)" fill="white"/>
<circle cx="74.6511" cy="74.6511" r="2.09302" transform="rotate(-90 74.6511 74.6511)" fill="white"/>
<circle cx="92.7907" cy="74.6511" r="2.09302" transform="rotate(-90 92.7907 74.6511)" fill="white"/>
<circle cx="110.93" cy="74.6511" r="2.09302" transform="rotate(-90 110.93 74.6511)" fill="white"/>
<circle cx="129.07" cy="74.6511" r="2.09302" transform="rotate(-90 129.07 74.6511)" fill="white"/>
<circle cx="147.209" cy="74.6511" r="2.09302" transform="rotate(-90 147.209 74.6511)" fill="white"/>
<circle cx="165.349" cy="74.6511" r="2.09302" transform="rotate(-90 165.349 74.6511)" fill="white"/>
<circle cx="183.488" cy="74.6511" r="2.09302" transform="rotate(-90 183.488 74.6511)" fill="white"/>
<circle cx="201.628" cy="74.6511" r="2.09302" transform="rotate(-90 201.628 74.6511)" fill="white"/>
<circle cx="219.767" cy="74.6511" r="2.09302" transform="rotate(-90 219.767 74.6511)" fill="white"/>
<circle cx="237.907" cy="74.6511" r="2.09302" transform="rotate(-90 237.907 74.6511)" fill="white"/>
<circle cx="2.09302" cy="56.5117" r="2.09302" transform="rotate(-90 2.09302 56.5117)" fill="white"/>
<circle cx="20.2325" cy="56.5117" r="2.09302" transform="rotate(-90 20.2325 56.5117)" fill="white"/>
<circle cx="38.3721" cy="56.5117" r="2.09302" transform="rotate(-90 38.3721 56.5117)" fill="white"/>
<circle cx="56.5116" cy="56.5117" r="2.09302" transform="rotate(-90 56.5116 56.5117)" fill="white"/>
<circle cx="74.6511" cy="56.5117" r="2.09302" transform="rotate(-90 74.6511 56.5117)" fill="white"/>
<circle cx="92.7907" cy="56.5117" r="2.09302" transform="rotate(-90 92.7907 56.5117)" fill="white"/>
<circle cx="110.93" cy="56.5117" r="2.09302" transform="rotate(-90 110.93 56.5117)" fill="white"/>
<circle cx="129.07" cy="56.5117" r="2.09302" transform="rotate(-90 129.07 56.5117)" fill="white"/>
<circle cx="147.209" cy="56.5117" r="2.09302" transform="rotate(-90 147.209 56.5117)" fill="white"/>
<circle cx="165.349" cy="56.5117" r="2.09302" transform="rotate(-90 165.349 56.5117)" fill="white"/>
<circle cx="183.488" cy="56.5117" r="2.09302" transform="rotate(-90 183.488 56.5117)" fill="white"/>
<circle cx="201.628" cy="56.5117" r="2.09302" transform="rotate(-90 201.628 56.5117)" fill="white"/>
<circle cx="219.767" cy="56.5117" r="2.09302" transform="rotate(-90 219.767 56.5117)" fill="white"/>
<circle cx="237.907" cy="56.5117" r="2.09302" transform="rotate(-90 237.907 56.5117)" fill="white"/>
<circle cx="2.09302" cy="38.3723" r="2.09302" transform="rotate(-90 2.09302 38.3723)" fill="white"/>
<circle cx="20.2325" cy="38.3723" r="2.09302" transform="rotate(-90 20.2325 38.3723)" fill="white"/>
<circle cx="38.3721" cy="38.3723" r="2.09302" transform="rotate(-90 38.3721 38.3723)" fill="white"/>
<circle cx="56.5116" cy="38.3723" r="2.09302" transform="rotate(-90 56.5116 38.3723)" fill="white"/>
<circle cx="74.6511" cy="38.3723" r="2.09302" transform="rotate(-90 74.6511 38.3723)" fill="white"/>
<circle cx="92.7907" cy="38.3723" r="2.09302" transform="rotate(-90 92.7907 38.3723)" fill="white"/>
<circle cx="110.93" cy="38.3723" r="2.09302" transform="rotate(-90 110.93 38.3723)" fill="white"/>
<circle cx="129.07" cy="38.3723" r="2.09302" transform="rotate(-90 129.07 38.3723)" fill="white"/>
<circle cx="147.209" cy="38.3723" r="2.09302" transform="rotate(-90 147.209 38.3723)" fill="white"/>
<circle cx="165.349" cy="38.3723" r="2.09302" transform="rotate(-90 165.349 38.3723)" fill="white"/>
<circle cx="183.488" cy="38.3723" r="2.09302" transform="rotate(-90 183.488 38.3723)" fill="white"/>
<circle cx="201.628" cy="38.3723" r="2.09302" transform="rotate(-90 201.628 38.3723)" fill="white"/>
<circle cx="219.767" cy="38.3723" r="2.09302" transform="rotate(-90 219.767 38.3723)" fill="white"/>
<circle cx="237.907" cy="38.3723" r="2.09302" transform="rotate(-90 237.907 38.3723)" fill="white"/>
<circle cx="2.09302" cy="20.2324" r="2.09302" transform="rotate(-90 2.09302 20.2324)" fill="white"/>
<circle cx="20.2325" cy="20.2324" r="2.09302" transform="rotate(-90 20.2325 20.2324)" fill="white"/>
<circle cx="38.3721" cy="20.2324" r="2.09302" transform="rotate(-90 38.3721 20.2324)" fill="white"/>
<circle cx="56.5116" cy="20.2324" r="2.09302" transform="rotate(-90 56.5116 20.2324)" fill="white"/>
<circle cx="74.6511" cy="20.2324" r="2.09302" transform="rotate(-90 74.6511 20.2324)" fill="white"/>
<circle cx="92.7907" cy="20.2324" r="2.09302" transform="rotate(-90 92.7907 20.2324)" fill="white"/>
<circle cx="110.93" cy="20.2324" r="2.09302" transform="rotate(-90 110.93 20.2324)" fill="white"/>
<circle cx="129.07" cy="20.2324" r="2.09302" transform="rotate(-90 129.07 20.2324)" fill="white"/>
<circle cx="147.209" cy="20.2324" r="2.09302" transform="rotate(-90 147.209 20.2324)" fill="white"/>
<circle cx="165.349" cy="20.2324" r="2.09302" transform="rotate(-90 165.349 20.2324)" fill="white"/>
<circle cx="183.488" cy="20.2324" r="2.09302" transform="rotate(-90 183.488 20.2324)" fill="white"/>
<circle cx="201.628" cy="20.2324" r="2.09302" transform="rotate(-90 201.628 20.2324)" fill="white"/>
<circle cx="219.767" cy="20.2324" r="2.09302" transform="rotate(-90 219.767 20.2324)" fill="white"/>
<circle cx="237.907" cy="20.2324" r="2.09302" transform="rotate(-90 237.907 20.2324)" fill="white"/>
<circle cx="2.09302" cy="2.09301" r="2.09302" transform="rotate(-90 2.09302 2.09301)" fill="white"/>
<circle cx="20.2325" cy="2.09301" r="2.09302" transform="rotate(-90 20.2325 2.09301)" fill="white"/>
<circle cx="38.3721" cy="2.09301" r="2.09302" transform="rotate(-90 38.3721 2.09301)" fill="white"/>
<circle cx="56.5116" cy="2.09301" r="2.09302" transform="rotate(-90 56.5116 2.09301)" fill="white"/>
<circle cx="74.6511" cy="2.09301" r="2.09302" transform="rotate(-90 74.6511 2.09301)" fill="white"/>
<circle cx="92.7907" cy="2.09301" r="2.09302" transform="rotate(-90 92.7907 2.09301)" fill="white"/>
<circle cx="110.93" cy="2.09301" r="2.09302" transform="rotate(-90 110.93 2.09301)" fill="white"/>
<circle cx="129.07" cy="2.09301" r="2.09302" transform="rotate(-90 129.07 2.09301)" fill="white"/>
<circle cx="147.209" cy="2.09301" r="2.09302" transform="rotate(-90 147.209 2.09301)" fill="white"/>
<circle cx="165.349" cy="2.09301" r="2.09302" transform="rotate(-90 165.349 2.09301)" fill="white"/>
<circle cx="183.488" cy="2.09301" r="2.09302" transform="rotate(-90 183.488 2.09301)" fill="white"/>
<circle cx="201.628" cy="2.09301" r="2.09302" transform="rotate(-90 201.628 2.09301)" fill="white"/>
<circle cx="219.767" cy="2.09301" r="2.09302" transform="rotate(-90 219.767 2.09301)" fill="white"/>
<circle cx="237.907" cy="2.09301" r="2.09302" transform="rotate(-90 237.907 2.09301)" fill="white"/>
</g>
</svg>
